<?xml version="1.0" encoding="UTF-8"?>
<svg id="Layer_2" data-name="Layer 2" xmlns="http://www.w3.org/2000/svg" viewBox="0 0 171.62 158.51">
  <defs>
    <style>
      .cls-1 {
        fill: #fff;
      }

      .cls-2 {
        fill: #ce8e4c;
      }
    </style>
  </defs>
  <g id="Layer_1-2" data-name="Layer 1">
    <g>
      <polygon class="cls-1" points="171.62 79.14 171.46 97.85 85.69 17.71 20.25 79.37 20.25 158.51 11.35 158.51 11.35 87.72 .23 98.21 0 79.55 76.08 8.67 82.76 2.41 85.69 0 88.66 2.45 95.35 8.63 171.62 79.14"/>
      <polygon class="cls-2" points="86.07 35.24 32.3 85.91 32.3 158.45 60.45 158.45 60.59 100.14 86.07 100.32 86.72 158.45 156.35 158.45 156.35 140.57 105.1 140.57 104.95 132.07 156.35 131.9 156.35 116.63 104.95 116.45 105.1 106.74 156.35 106.56 156.35 102.05 86.07 35.24"/>
    </g>
  </g>
</svg>